<?xml version="1.0" encoding="utf-8"?>
<!-- Generator: Adobe Illustrator 16.0.0, SVG Export Plug-In . SVG Version: 6.00 Build 0)  -->
<!DOCTYPE svg PUBLIC "-//W3C//DTD SVG 1.1//EN" "http://www.w3.org/Graphics/SVG/1.1/DTD/svg11.dtd">
<svg version="1.1" id="Layer_1" xmlns="http://www.w3.org/2000/svg" xmlns:xlink="http://www.w3.org/1999/xlink" x="0px" y="0px"
	 width="792px" height="612px" viewBox="0 0 792 612" enable-background="new 0 0 792 612" xml:space="preserve">
<g>
	<path fill="#FFFFFF" d="M372.109,590.807c-57.321,0-113.141-8.248-172.839-24.848c-55.543-15.463-89.388-69.095-77.058-122.1
		c30.129-129.502,82.692-251.301,156.23-362.016c21.982-33.115,61.512-51.86,103.093-48.886c41.5,2.948,76.374,25.939,93.294,61.491
		l196.387,412.595l-44.723,21.279L430.113,115.729c-9.151-19.23-28.624-31.708-52.089-33.376
		c-24.123-1.717-46.007,8.33-58.332,26.889C249.447,215.012,199.23,331.369,170.444,455.077
		c-6.408,27.544,11.697,54.699,42.108,63.174c65.904,18.341,125.336,26.338,187.166,23.358c17.229-0.829,34.648-2.515,52.442-5.065
		c17.798-2.546,37.086-5.03,54.724-10.252c3.427-1.017,6.134-4.691,4.266-9.383l-46.432-97.329
		c-21.626-45.436-33.957-71.398-46.499-97.798c-15.271-32.136-25.486-53.634-46.271-97.292c-2.079-3.312-8.658-3.024-9.925-0.175
		c-31.037,65.747-51.233,118.528-72.95,188.569c-0.366,1.196-1.517,3.868-1.031,6.092c0.596,2.763,2.418,4.45,4.568,4.79
		c6.094,0.959,9.055,1.231,14.658,1.909c7.744,0.93,15.328,1.711,23.616,2.465c18.745,1.694,15.247,2.408,29.765,2.203
		c19.762-1.017,16.667-20.097,16.412-30.674c-0.257-10.707,1.291-14.316,6.19-16.638c5.628-2.664,10.277-1.559,12.534,2.394
		c8.838,15.5,15.739,36.84,25.78,57.927c3.6,7.555,3.139,16.406-1.215,23.541c-4.356,7.143-12.017,11.594-20.377,11.859
		l-11.862,0.387c-28.096,0.931-29.637,1.222-61.722-1.682c-16.346-1.499-32.866-3.457-49.123-5.839
		c-14.37-2.092-26.962-10.143-34.522-22.063c-7.157-11.282-9.037-25.028-5.174-37.712c22.903-75.117,51.381-148.868,84.637-219.223
		c8.04-17.024,25.153-27.603,44.658-27.615c0.019,0,0.04,0,0.059,0c19.479,0,36.587,10.53,44.658,27.506
		c20.97,44.045,36.005,75.686,51.366,108.017c13.731,28.908,27.735,58.371,46.487,97.762l49.559,104.123
		c6.535,13.747,6.426,29.44-0.296,43.079c-7.098,14.411-20.488,24.664-36.746,28.158
		C468.883,585.064,419.971,590.807,372.109,590.807z"/>
</g>
</svg>
