<?xml version="1.0" encoding="utf-8"?>
<!-- Generator: Adobe Illustrator 16.0.0, SVG Export Plug-In . SVG Version: 6.00 Build 0)  -->
<!DOCTYPE svg PUBLIC "-//W3C//DTD SVG 1.1//EN" "http://www.w3.org/Graphics/SVG/1.1/DTD/svg11.dtd">
<svg version="1.1" xmlns="http://www.w3.org/2000/svg" xmlns:xlink="http://www.w3.org/1999/xlink" x="0px" y="0px"
	 width="461.763px" height="454.794px" viewBox="0 0 461.763 454.794" enable-background="new 0 0 461.763 454.794"
	 xml:space="preserve">
<g id="Layer_1">
</g>
<g id="Layer_4">
	<path fill="#FFFFFF" d="M249.837,454.856c-4.516,0-9.028-0.031-13.515-0.062c-4.398-0.028-8.771-0.059-13.096-0.059
		c-46.646,0-89.074-5.131-129.709-15.685C27.094,421.807,0,377.906,0,287.524c0-33.807,7.318-70.302,43.028-138.515
		c28.737-54.888,60.334-92.878,102.448-123.179c31.785-22.872,54.05-25.955,71.637-25.955c1.956,0,3.817,0.035,5.592,0.068
		C224.229-0.027,225.687,0,227.081,0c46.361,0,79.606,17.058,104.639,53.674c0.307,0.415,0.577,0.862,0.802,1.332l128.282,234.688
		c1.461,2.676,1.238,5.953-0.577,8.403l-5.949,8.033c-1.564,2.108-4.094,3.274-6.705,3.153c-2.624-0.144-5-1.595-6.323-3.862
		L306.448,74.719c-19.56-28.63-46.938-42.545-83.696-42.545c-37.481,0-96.319,35.885-149.045,136.596
		c-28.012,53.505-32.419,104.796-32.897,111.699c0.13,43.891,11.769,99.044,66.335,113.212c36.14,9.381,74.11,13.942,116.082,13.942
		c47.777,0,82.085-4.421,94.228-26.006c17.465-31.051,12.53-72.855-13.207-111.828l-0.335-0.532l-69.323-105.726
		c-6.266-7.78-10.4-8.688-12.974-8.688l-0.293,0.006c-9.489,0.278-16.174,3.056-43.237,56.834
		c-14.917,29.641-17.172,32.392-15.959,41.926c0.667,5.236,1.667,20.447,31.131,21.418c15.438,0.507,33.27,2.882,34.021,2.982
		c10.965,1.488,31.604,10.174,31.349,32.395c-0.011,0.82,0.054,1.814,0.115,2.922c0.404,7.232,1.35,24.166-14.67,29.397
		c-2.531,0.828-5.562,1.229-9.262,1.229c-7.202,0-16.317-1.52-25.968-3.128c-5.155-0.862-10.486-1.749-15.607-2.417
		c-39.181-5.099-80.5-31.642-83.667-72.513c-1.733-22.363,3.779-42.466,21.065-76.815c25.443-50.56,43.94-81.54,86.199-85.425
		c2.39-0.223,4.792-0.334,7.129-0.334c22.574,0,41.901,10.13,57.445,30.114c0.573,0.739,1.089,1.484,1.565,2.25l66.137,106.951
		c6.625,10.261,23.089,38.139,31.109,72.523c8.875,38.045,4.681,70.964-12.47,97.838
		C343.105,451.622,295.985,454.856,249.837,454.856z"/>
</g>
</svg>
