<?xml version="1.0" encoding="utf-8"?>
<!-- Generator: Adobe Illustrator 16.0.0, SVG Export Plug-In . SVG Version: 6.00 Build 0)  -->
<!DOCTYPE svg PUBLIC "-//W3C//DTD SVG 1.1//EN" "http://www.w3.org/Graphics/SVG/1.1/DTD/svg11.dtd">
<svg version="1.1" id="Layer_1" xmlns="http://www.w3.org/2000/svg" xmlns:xlink="http://www.w3.org/1999/xlink" x="0px" y="0px"
	 width="792px" height="612px" viewBox="0 0 792 612" enable-background="new 0 0 792 612" xml:space="preserve">
<path fill="#FFFFFF" d="M388.524,39.835c47.34,0.006,81.329,19.315,101.008,57.393l172.307,355.13l-44.122,21.676L474.46,170.479
	c-32.476-67.266-45.812-79.095-89.18-79.095c-25.816,0-43.382,10.183-60.625,35.143c-30.224,43.757-49.56,87.848-68.257,130.488
	l-0.178,0.406c-1.831,4.177-3.662,8.354-5.506,12.53c-26.286,59.589-49.263,114.142-64.219,178.409
	c-6.35,27.31,11.601,54.24,41.76,62.644c40.18,11.18,145.826,12.049,177.248,12.049c29.328-0.002,57.283-0.605,76.695-1.655
	c5.825-0.313,11.807-0.933,16.081-3.328c23.17-12.986,11.957-37.178,0.065-62.828l-20.045-42.067
	c-19.415-40.798-31.277-65.756-42.575-89.54l-3.538-7.445c-6.972-14.672-11.52-24.635-16.335-35.184l-0.181-0.394
	c-4.021-8.806-8.179-17.914-14.155-30.663c-2.447-5.222-7.802-8.594-13.638-8.594c-5.417,0-10.301,2.731-13.393,7.487l-0.135,0.207
	l-0.181,0.278l-0.137,0.303l-66.486,148.097c-2.169,4.633-2.014,10.045,0.417,14.475c1.954,3.569,5.062,5.877,8.585,6.344
	l5.63,0.664c7.397,0.888,14.836,1.663,23.413,2.444c6.794,0.614,10.625,1.096,13.424,1.446c4.308,0.539,10.496,0.713,12.816,0.713
	h0.043l13.233,0.647c0,0,3.106-0.191,3.482-3.619c0.398-3.627-1.315-6.482-1.315-6.482l-21.045-45.268l33.048-13.845
	c10.995,24.919,32.953,74.615,36.226,81.494c3.579,7.51,3.129,16.234-1.207,23.343c-4.328,7.099-11.887,11.493-20.224,11.755
	l-16.412,0.541c-8.665,0.293-14.39,0.485-19.894,0.485c-9.446,0-17.81-0.604-36.625-2.306c-16.271-1.493-32.667-3.443-48.732-5.795
	c-14.245-2.073-26.719-10.047-34.224-21.878c-7.092-11.179-8.963-24.808-5.13-37.392c17.445-57.207,41.601-106.417,67.175-158.519
	l2.482-5.068c6.947-14.199,14.133-28.884,22.108-42.318c7.899-13.302,23.271-27.52,42.714-27.52c19.357,0,36.35,10.454,44.35,27.283
	c11.456,24.06,18.974,40.406,26.24,56.208l0.307,0.672c5.797,12.597,11.27,24.494,18.106,38.88
	c13.616,28.662,27.505,57.882,46.097,96.94l49.139,103.248c6.479,13.621,6.373,29.188-0.29,42.716
	c-7.032,14.278-20.315,24.454-36.441,27.922c-20.187,4.343-65.727,6.937-121.819,6.937c-72.556,0-161.959-4.504-198.142-14.563
	c-55.074-15.332-88.638-68.513-76.411-121.073c16.416-70.555,46.385-135.942,72.826-193.635c2.281-4.975,4.55-9.948,6.814-14.915
	l0.386-0.844c22.793-49.979,44.324-97.185,74.892-143.207c19.176-28.888,52.455-44.796,93.723-44.796L388.524,39.835"/>
</svg>
